<svg width="16" height="16" viewBox="0 0 16 16" fill="none" xmlns="http://www.w3.org/2000/svg">
<path fill-rule="evenodd" clip-rule="evenodd" d="M1.85587 1.85587C4.33036 -0.618623 8.34231 -0.618623 10.8168 1.85587C13.0827 4.12175 13.2737 7.67641 11.3899 10.1599L15.6487 14.4187L14.0673 16L9.74595 11.6786C7.29393 13.2467 3.99874 12.9597 1.85587 10.8168C-0.618623 8.34231 -0.618623 4.33036 1.85587 1.85587ZM9.23546 3.43721C7.63432 1.83607 5.03835 1.83607 3.43721 3.43721C1.83607 5.03835 1.83607 7.63432 3.43721 9.23546C5.03835 10.8366 7.63432 10.8366 9.23546 9.23546C10.8366 7.63432 10.8366 5.03835 9.23546 3.43721Z" fill="#00194C"/>
</svg>
